<mxfile host="65bd71144e">
    <diagram id="oLMNUzMEJxlVeu7WXyMV" name="LFP trace">
        <mxGraphModel dx="2069" dy="853" grid="1" gridSize="10" guides="1" tooltips="1" connect="1" arrows="1" fold="1" page="1" pageScale="1" pageWidth="1169" pageHeight="827" background="none" math="0" shadow="0">
            <root>
                <mxCell id="0"/>
                <mxCell id="1" parent="0"/>
                <mxCell id="9" value="" style="shape=table;startSize=0;container=1;collapsible=0;childLayout=tableLayout;rounded=0;sketch=1;" vertex="1" parent="1">
                    <mxGeometry x="166" y="197" width="90" height="40" as="geometry"/>
                </mxCell>
                <mxCell id="10" value="" style="shape=partialRectangle;collapsible=0;dropTarget=0;pointerEvents=0;fillColor=none;top=0;left=0;bottom=0;right=0;points=[[0,0.5],[1,0.5]];portConstraint=eastwest;rounded=0;sketch=1;" vertex="1" parent="9">
                    <mxGeometry width="90" height="40" as="geometry"/>
                </mxCell>
                <mxCell id="11" value="chunking" style="shape=partialRectangle;html=1;whiteSpace=wrap;connectable=0;overflow=hidden;fillColor=none;top=0;left=0;bottom=0;right=0;pointerEvents=1;rounded=0;sketch=1;" vertex="1" parent="10">
                    <mxGeometry width="90" height="40" as="geometry">
                        <mxRectangle width="90" height="40" as="alternateBounds"/>
                    </mxGeometry>
                </mxCell>
                <mxCell id="12" value="" style="shape=table;startSize=0;container=1;collapsible=0;childLayout=tableLayout;rounded=0;sketch=1;" vertex="1" parent="1">
                    <mxGeometry x="488" y="198" width="90" height="40" as="geometry"/>
                </mxCell>
                <mxCell id="13" value="" style="shape=partialRectangle;collapsible=0;dropTarget=0;pointerEvents=0;fillColor=none;top=0;left=0;bottom=0;right=0;points=[[0,0.5],[1,0.5]];portConstraint=eastwest;rounded=0;sketch=1;" vertex="1" parent="12">
                    <mxGeometry width="90" height="40" as="geometry"/>
                </mxCell>
                <mxCell id="14" value="stacking" style="shape=partialRectangle;html=1;whiteSpace=wrap;connectable=0;overflow=hidden;fillColor=none;top=0;left=0;bottom=0;right=0;pointerEvents=1;rounded=0;sketch=1;" vertex="1" parent="13">
                    <mxGeometry width="90" height="40" as="geometry">
                        <mxRectangle width="90" height="40" as="alternateBounds"/>
                    </mxGeometry>
                </mxCell>
                <mxCell id="15" value="" style="shape=table;startSize=0;container=1;collapsible=0;childLayout=tableLayout;rounded=0;sketch=1;" vertex="1" parent="1">
                    <mxGeometry x="165" y="267" width="90" height="40" as="geometry"/>
                </mxCell>
                <mxCell id="16" value="" style="shape=partialRectangle;collapsible=0;dropTarget=0;pointerEvents=0;fillColor=none;top=0;left=0;bottom=0;right=0;points=[[0,0.5],[1,0.5]];portConstraint=eastwest;rounded=0;sketch=1;" vertex="1" parent="15">
                    <mxGeometry width="90" height="40" as="geometry"/>
                </mxCell>
                <mxCell id="17" value="1" style="shape=partialRectangle;html=1;whiteSpace=wrap;connectable=0;overflow=hidden;fillColor=none;top=0;left=0;bottom=0;right=0;pointerEvents=1;rounded=0;sketch=1;" vertex="1" parent="16">
                    <mxGeometry width="90" height="40" as="geometry">
                        <mxRectangle width="90" height="40" as="alternateBounds"/>
                    </mxGeometry>
                </mxCell>
                <mxCell id="29" style="edgeStyle=none;html=1;entryX=0;entryY=0.5;entryDx=0;entryDy=0;rounded=0;sketch=1;exitX=1;exitY=0.5;exitDx=0;exitDy=0;" edge="1" parent="1" source="16" target="TVICFS0kHj4t4Ta-pwgY-100">
                    <mxGeometry relative="1" as="geometry">
                        <mxPoint x="343" y="297" as="targetPoint"/>
                        <mxPoint x="173" y="287" as="sourcePoint"/>
                    </mxGeometry>
                </mxCell>
                <mxCell id="30" style="edgeStyle=none;html=1;rounded=0;sketch=1;entryX=0;entryY=0.5;entryDx=0;entryDy=0;" edge="1" parent="1" target="TVICFS0kHj4t4Ta-pwgY-103">
                    <mxGeometry relative="1" as="geometry">
                        <mxPoint x="340" y="336" as="targetPoint"/>
                        <mxPoint x="250" y="336" as="sourcePoint"/>
                    </mxGeometry>
                </mxCell>
                <mxCell id="32" value="&lt;font style=&quot;font-size: 18px&quot;&gt;Spike and lfp trace data engineering&lt;/font&gt;" style="text;html=1;resizable=0;autosize=1;align=center;verticalAlign=middle;points=[];fillColor=none;strokeColor=none;rounded=0;strokeWidth=10;sketch=1;" vertex="1" parent="1">
                    <mxGeometry x="228" y="137" width="300" height="20" as="geometry"/>
                </mxCell>
                <mxCell id="33" value="" style="shape=table;startSize=0;container=1;collapsible=0;childLayout=tableLayout;rounded=0;sketch=1;" vertex="1" parent="1">
                    <mxGeometry x="658" y="198" width="90" height="40" as="geometry"/>
                </mxCell>
                <mxCell id="34" value="" style="shape=partialRectangle;collapsible=0;dropTarget=0;pointerEvents=0;fillColor=none;top=0;left=0;bottom=0;right=0;points=[[0,0.5],[1,0.5]];portConstraint=eastwest;rounded=0;sketch=1;" vertex="1" parent="33">
                    <mxGeometry width="90" height="40" as="geometry"/>
                </mxCell>
                <mxCell id="35" value="stacking" style="shape=partialRectangle;html=1;whiteSpace=wrap;connectable=0;overflow=hidden;fillColor=none;top=0;left=0;bottom=0;right=0;pointerEvents=1;rounded=0;sketch=1;" vertex="1" parent="34">
                    <mxGeometry width="90" height="40" as="geometry">
                        <mxRectangle width="90" height="40" as="alternateBounds"/>
                    </mxGeometry>
                </mxCell>
                <mxCell id="36" value="" style="shape=table;startSize=0;container=1;collapsible=0;childLayout=tableLayout;rounded=0;sketch=1;" vertex="1" parent="1">
                    <mxGeometry x="673" y="398" width="80" height="40" as="geometry"/>
                </mxCell>
                <mxCell id="37" value="" style="shape=partialRectangle;collapsible=0;dropTarget=0;pointerEvents=0;fillColor=none;top=0;left=0;bottom=0;right=0;points=[[0,0.5],[1,0.5]];portConstraint=eastwest;rounded=0;sketch=1;" vertex="1" parent="36">
                    <mxGeometry width="80" height="40" as="geometry"/>
                </mxCell>
                <mxCell id="38" value="1" style="shape=partialRectangle;html=1;whiteSpace=wrap;connectable=0;overflow=hidden;fillColor=none;top=0;left=0;bottom=0;right=0;pointerEvents=1;rounded=0;sketch=1;" vertex="1" parent="37">
                    <mxGeometry width="80" height="40" as="geometry">
                        <mxRectangle width="80" height="40" as="alternateBounds"/>
                    </mxGeometry>
                </mxCell>
                <mxCell id="39" value="" style="shape=table;startSize=0;container=1;collapsible=0;childLayout=tableLayout;rounded=0;sketch=1;" vertex="1" parent="1">
                    <mxGeometry x="503" y="534" width="80" height="40" as="geometry"/>
                </mxCell>
                <mxCell id="40" value="" style="shape=partialRectangle;collapsible=0;dropTarget=0;pointerEvents=0;fillColor=none;top=0;left=0;bottom=0;right=0;points=[[0,0.5],[1,0.5]];portConstraint=eastwest;rounded=0;sketch=1;" vertex="1" parent="39">
                    <mxGeometry width="80" height="40" as="geometry"/>
                </mxCell>
                <mxCell id="41" value="10" style="shape=partialRectangle;html=1;whiteSpace=wrap;connectable=0;overflow=hidden;fillColor=none;top=0;left=0;bottom=0;right=0;pointerEvents=1;rounded=0;sketch=1;" vertex="1" parent="40">
                    <mxGeometry width="80" height="40" as="geometry">
                        <mxRectangle width="80" height="40" as="alternateBounds"/>
                    </mxGeometry>
                </mxCell>
                <mxCell id="42" value="" style="shape=table;startSize=0;container=1;collapsible=0;childLayout=tableLayout;rounded=0;sketch=1;" vertex="1" parent="1">
                    <mxGeometry x="167" y="477" width="90" height="40" as="geometry"/>
                </mxCell>
                <mxCell id="43" value="" style="shape=partialRectangle;collapsible=0;dropTarget=0;pointerEvents=0;fillColor=none;top=0;left=0;bottom=0;right=0;points=[[0,0.5],[1,0.5]];portConstraint=eastwest;rounded=0;sketch=1;" vertex="1" parent="42">
                    <mxGeometry width="90" height="40" as="geometry"/>
                </mxCell>
                <mxCell id="44" value="1" style="shape=partialRectangle;html=1;whiteSpace=wrap;connectable=0;overflow=hidden;fillColor=none;top=0;left=0;bottom=0;right=0;pointerEvents=1;rounded=0;sketch=1;" vertex="1" parent="43">
                    <mxGeometry width="90" height="40" as="geometry">
                        <mxRectangle width="90" height="40" as="alternateBounds"/>
                    </mxGeometry>
                </mxCell>
                <mxCell id="57" style="edgeStyle=none;html=1;exitX=1;exitY=0.5;exitDx=0;exitDy=0;entryX=0.989;entryY=0.75;entryDx=0;entryDy=0;entryPerimeter=0;rounded=0;sketch=1;" edge="1" parent="42">
                    <mxGeometry relative="1" as="geometry">
                        <mxPoint x="90" y="21" as="sourcePoint"/>
                        <mxPoint x="89.00999999999999" y="31" as="targetPoint"/>
                    </mxGeometry>
                </mxCell>
                <mxCell id="45" value="" style="shape=table;startSize=0;container=1;collapsible=0;childLayout=tableLayout;rounded=0;sketch=1;" vertex="1" parent="1">
                    <mxGeometry x="167" y="534" width="90" height="40" as="geometry"/>
                </mxCell>
                <mxCell id="46" value="" style="shape=partialRectangle;collapsible=0;dropTarget=0;pointerEvents=0;fillColor=none;top=0;left=0;bottom=0;right=0;points=[[0,0.5],[1,0.5]];portConstraint=eastwest;rounded=0;sketch=1;" vertex="1" parent="45">
                    <mxGeometry width="90" height="40" as="geometry"/>
                </mxCell>
                <mxCell id="47" value="2" style="shape=partialRectangle;html=1;whiteSpace=wrap;connectable=0;overflow=hidden;fillColor=none;top=0;left=0;bottom=0;right=0;pointerEvents=1;rounded=0;sketch=1;" vertex="1" parent="46">
                    <mxGeometry width="90" height="40" as="geometry">
                        <mxRectangle width="90" height="40" as="alternateBounds"/>
                    </mxGeometry>
                </mxCell>
                <mxCell id="48" value="" style="shape=table;startSize=0;container=1;collapsible=0;childLayout=tableLayout;rounded=0;sketch=1;" vertex="1" parent="1">
                    <mxGeometry x="167" y="599" width="90" height="40" as="geometry"/>
                </mxCell>
                <mxCell id="49" value="" style="shape=partialRectangle;collapsible=0;dropTarget=0;pointerEvents=0;fillColor=none;top=0;left=0;bottom=0;right=0;points=[[0,0.5],[1,0.5]];portConstraint=eastwest;rounded=0;sketch=1;" vertex="1" parent="48">
                    <mxGeometry width="90" height="40" as="geometry"/>
                </mxCell>
                <mxCell id="50" value="30" style="shape=partialRectangle;html=1;whiteSpace=wrap;connectable=0;overflow=hidden;fillColor=none;top=0;left=0;bottom=0;right=0;pointerEvents=1;rounded=0;sketch=1;" vertex="1" parent="49">
                    <mxGeometry width="90" height="40" as="geometry">
                        <mxRectangle width="90" height="40" as="alternateBounds"/>
                    </mxGeometry>
                </mxCell>
                <mxCell id="51" value="" style="shape=table;startSize=0;container=1;collapsible=0;childLayout=tableLayout;rounded=0;sketch=1;" vertex="1" parent="1">
                    <mxGeometry x="165" y="316" width="90" height="40" as="geometry"/>
                </mxCell>
                <mxCell id="52" value="" style="shape=partialRectangle;collapsible=0;dropTarget=0;pointerEvents=0;fillColor=none;top=0;left=0;bottom=0;right=0;points=[[0,0.5],[1,0.5]];portConstraint=eastwest;rounded=0;sketch=1;" vertex="1" parent="51">
                    <mxGeometry width="90" height="40" as="geometry"/>
                </mxCell>
                <mxCell id="53" value="2" style="shape=partialRectangle;html=1;whiteSpace=wrap;connectable=0;overflow=hidden;fillColor=none;top=0;left=0;bottom=0;right=0;pointerEvents=1;rounded=0;sketch=1;" vertex="1" parent="52">
                    <mxGeometry width="90" height="40" as="geometry">
                        <mxRectangle width="90" height="40" as="alternateBounds"/>
                    </mxGeometry>
                </mxCell>
                <mxCell id="54" value="" style="shape=table;startSize=0;container=1;collapsible=0;childLayout=tableLayout;rounded=0;sketch=1;" vertex="1" parent="1">
                    <mxGeometry x="165" y="387" width="90" height="40" as="geometry"/>
                </mxCell>
                <mxCell id="55" value="" style="shape=partialRectangle;collapsible=0;dropTarget=0;pointerEvents=0;fillColor=none;top=0;left=0;bottom=0;right=0;points=[[0,0.5],[1,0.5]];portConstraint=eastwest;rounded=0;sketch=1;" vertex="1" parent="54">
                    <mxGeometry width="90" height="40" as="geometry"/>
                </mxCell>
                <mxCell id="56" value="30" style="shape=partialRectangle;html=1;whiteSpace=wrap;connectable=0;overflow=hidden;fillColor=none;top=0;left=0;bottom=0;right=0;pointerEvents=1;rounded=0;sketch=1;" vertex="1" parent="55">
                    <mxGeometry width="90" height="40" as="geometry">
                        <mxRectangle width="90" height="40" as="alternateBounds"/>
                    </mxGeometry>
                </mxCell>
                <mxCell id="59" value="..." style="text;html=1;resizable=0;autosize=1;align=center;verticalAlign=middle;points=[];fillColor=none;strokeColor=none;rounded=0;sketch=1;" vertex="1" parent="1">
                    <mxGeometry x="528" y="418" width="30" height="20" as="geometry"/>
                </mxCell>
                <mxCell id="60" value="..." style="text;html=1;resizable=0;autosize=1;align=center;verticalAlign=middle;points=[];fillColor=none;strokeColor=none;rounded=0;sketch=1;" vertex="1" parent="1">
                    <mxGeometry x="198" y="362" width="30" height="20" as="geometry"/>
                </mxCell>
                <mxCell id="61" value="..." style="text;html=1;resizable=0;autosize=1;align=center;verticalAlign=middle;points=[];fillColor=none;strokeColor=none;rounded=0;sketch=1;" vertex="1" parent="1">
                    <mxGeometry x="197" y="578" width="30" height="20" as="geometry"/>
                </mxCell>
                <mxCell id="65" value="simulation level" style="text;html=1;resizable=0;autosize=1;align=center;verticalAlign=middle;points=[];fillColor=none;strokeColor=none;rounded=0;sketch=1;" vertex="1" parent="1">
                    <mxGeometry x="483" y="171" width="100" height="20" as="geometry"/>
                </mxCell>
                <mxCell id="66" value="campaign level" style="text;html=1;resizable=0;autosize=1;align=center;verticalAlign=middle;points=[];fillColor=none;strokeColor=none;rounded=0;sketch=1;" vertex="1" parent="1">
                    <mxGeometry x="653" y="171" width="100" height="20" as="geometry"/>
                </mxCell>
                <mxCell id="67" style="edgeStyle=none;html=1;entryX=0;entryY=0.5;entryDx=0;entryDy=0;exitX=1;exitY=0.5;exitDx=0;exitDy=0;rounded=0;sketch=1;" edge="1" parent="1" source="TVICFS0kHj4t4Ta-pwgY-106" target="37">
                    <mxGeometry relative="1" as="geometry">
                        <mxPoint x="483" y="318" as="targetPoint"/>
                        <mxPoint x="573" y="318" as="sourcePoint"/>
                    </mxGeometry>
                </mxCell>
                <mxCell id="68" style="edgeStyle=none;html=1;entryX=0;entryY=0.5;entryDx=0;entryDy=0;exitX=1;exitY=0.5;exitDx=0;exitDy=0;rounded=0;sketch=1;" edge="1" parent="1" source="40" target="37">
                    <mxGeometry relative="1" as="geometry">
                        <mxPoint x="678" y="368" as="targetPoint"/>
                        <mxPoint x="583" y="328" as="sourcePoint"/>
                    </mxGeometry>
                </mxCell>
                <mxCell id="69" value="&lt;span style=&quot;font-size: 18px&quot;&gt;Each unit trace data engineering&lt;/span&gt;" style="text;html=1;resizable=0;autosize=1;align=center;verticalAlign=middle;points=[];fillColor=none;strokeColor=none;rounded=0;strokeWidth=10;sketch=1;" vertex="1" parent="1">
                    <mxGeometry x="275" y="657" width="270" height="20" as="geometry"/>
                </mxCell>
                <mxCell id="70" value="&lt;font style=&quot;font-size: 18px&quot;&gt;Preprocessing&lt;/font&gt;" style="text;html=1;resizable=0;autosize=1;align=center;verticalAlign=middle;points=[];fillColor=none;strokeColor=none;rounded=0;strokeWidth=10;sketch=1;" vertex="1" parent="1">
                    <mxGeometry x="850" y="139" width="130" height="20" as="geometry"/>
                </mxCell>
                <mxCell id="71" value="" style="shape=table;startSize=0;container=1;collapsible=0;childLayout=tableLayout;rounded=0;sketch=1;" vertex="1" parent="1">
                    <mxGeometry x="875" y="398" width="80" height="40" as="geometry"/>
                </mxCell>
                <mxCell id="72" value="" style="shape=partialRectangle;collapsible=0;dropTarget=0;pointerEvents=0;fillColor=none;top=0;left=0;bottom=0;right=0;points=[[0,0.5],[1,0.5]];portConstraint=eastwest;rounded=0;sketch=1;" vertex="1" parent="71">
                    <mxGeometry width="80" height="40" as="geometry"/>
                </mxCell>
                <mxCell id="73" value="1" style="shape=partialRectangle;html=1;whiteSpace=wrap;connectable=0;overflow=hidden;fillColor=none;top=0;left=0;bottom=0;right=0;pointerEvents=1;rounded=0;sketch=1;" vertex="1" parent="72">
                    <mxGeometry width="80" height="40" as="geometry">
                        <mxRectangle width="80" height="40" as="alternateBounds"/>
                    </mxGeometry>
                </mxCell>
                <mxCell id="74" style="edgeStyle=none;html=1;entryX=0;entryY=0.5;entryDx=0;entryDy=0;exitX=1;exitY=0.5;exitDx=0;exitDy=0;rounded=0;sketch=1;" edge="1" parent="1" source="37" target="72">
                    <mxGeometry relative="1" as="geometry">
                        <mxPoint x="683.0000000000005" y="428" as="targetPoint"/>
                        <mxPoint x="583" y="328" as="sourcePoint"/>
                    </mxGeometry>
                </mxCell>
                <mxCell id="75" value="&lt;font style=&quot;font-size: 12px&quot;&gt;steeve.laquitaine@epfl.ch&lt;/font&gt;" style="text;html=1;resizable=0;autosize=1;align=center;verticalAlign=middle;points=[];fillColor=none;strokeColor=none;rounded=0;strokeWidth=10;sketch=1;" vertex="1" parent="1">
                    <mxGeometry x="10" y="10" width="150" height="20" as="geometry"/>
                </mxCell>
                <mxCell id="76" value="" style="shape=table;startSize=0;container=1;collapsible=0;childLayout=tableLayout;rounded=0;sketch=1;" vertex="1" parent="1">
                    <mxGeometry x="55" y="322" width="80" height="40" as="geometry"/>
                </mxCell>
                <mxCell id="77" value="" style="shape=partialRectangle;collapsible=0;dropTarget=0;pointerEvents=0;fillColor=none;top=0;left=0;bottom=0;right=0;points=[[0,0.5],[1,0.5]];portConstraint=eastwest;rounded=0;sketch=1;" vertex="1" parent="76">
                    <mxGeometry width="80" height="40" as="geometry"/>
                </mxCell>
                <mxCell id="78" value="1" style="shape=partialRectangle;html=1;whiteSpace=wrap;connectable=0;overflow=hidden;fillColor=none;top=0;left=0;bottom=0;right=0;pointerEvents=1;rounded=0;sketch=1;" vertex="1" parent="77">
                    <mxGeometry width="80" height="40" as="geometry">
                        <mxRectangle width="80" height="40" as="alternateBounds"/>
                    </mxGeometry>
                </mxCell>
                <mxCell id="79" value="" style="shape=table;startSize=0;container=1;collapsible=0;childLayout=tableLayout;rounded=0;sketch=1;" vertex="1" parent="1">
                    <mxGeometry x="46" y="197" width="90" height="40" as="geometry"/>
                </mxCell>
                <mxCell id="80" value="" style="shape=partialRectangle;collapsible=0;dropTarget=0;pointerEvents=0;fillColor=none;top=0;left=0;bottom=0;right=0;points=[[0,0.5],[1,0.5]];portConstraint=eastwest;rounded=0;sketch=1;" vertex="1" parent="79">
                    <mxGeometry width="90" height="40" as="geometry"/>
                </mxCell>
                <mxCell id="81" value="report" style="shape=partialRectangle;html=1;whiteSpace=wrap;connectable=0;overflow=hidden;fillColor=none;top=0;left=0;bottom=0;right=0;pointerEvents=1;rounded=0;sketch=1;" vertex="1" parent="80">
                    <mxGeometry width="90" height="40" as="geometry">
                        <mxRectangle width="90" height="40" as="alternateBounds"/>
                    </mxGeometry>
                </mxCell>
                <mxCell id="82" style="edgeStyle=none;html=1;entryX=0;entryY=0.5;entryDx=0;entryDy=0;rounded=0;sketch=1;exitX=1;exitY=0.5;exitDx=0;exitDy=0;" edge="1" parent="1" source="77" target="16">
                    <mxGeometry relative="1" as="geometry">
                        <mxPoint x="360.03999999999996" y="318.9999999999998" as="targetPoint"/>
                        <mxPoint x="265" y="297" as="sourcePoint"/>
                    </mxGeometry>
                </mxCell>
                <mxCell id="83" style="edgeStyle=none;html=1;entryX=-0.003;entryY=0.775;entryDx=0;entryDy=0;rounded=0;sketch=1;entryPerimeter=0;" edge="1" parent="1" source="77" target="52">
                    <mxGeometry relative="1" as="geometry">
                        <mxPoint x="175" y="297" as="targetPoint"/>
                        <mxPoint x="130" y="336" as="sourcePoint"/>
                    </mxGeometry>
                </mxCell>
                <mxCell id="84" value="4 secs" style="text;html=1;resizable=0;autosize=1;align=center;verticalAlign=middle;points=[];fillColor=none;strokeColor=none;rounded=0;sketch=1;fontSize=18;" vertex="1" parent="1">
                    <mxGeometry x="58" y="291" width="70" height="30" as="geometry"/>
                </mxCell>
                <mxCell id="85" value="&lt;font style=&quot;font-size: 12px&quot;&gt;133 ms x 128 sites x 30K cells&lt;/font&gt;" style="text;html=1;resizable=0;autosize=1;align=center;verticalAlign=middle;points=[];fillColor=none;strokeColor=none;rounded=0;sketch=1;fontSize=18;" vertex="1" parent="1">
                    <mxGeometry x="128" y="237" width="180" height="30" as="geometry"/>
                </mxCell>
                <mxCell id="86" value="" style="shape=table;startSize=0;container=1;collapsible=0;childLayout=tableLayout;rounded=0;sketch=1;" vertex="1" parent="1">
                    <mxGeometry x="58" y="534" width="80" height="40" as="geometry"/>
                </mxCell>
                <mxCell id="87" value="" style="shape=partialRectangle;collapsible=0;dropTarget=0;pointerEvents=0;fillColor=none;top=0;left=0;bottom=0;right=0;points=[[0,0.5],[1,0.5]];portConstraint=eastwest;rounded=0;sketch=1;" vertex="1" parent="86">
                    <mxGeometry width="80" height="40" as="geometry"/>
                </mxCell>
                <mxCell id="88" value="3" style="shape=partialRectangle;html=1;whiteSpace=wrap;connectable=0;overflow=hidden;fillColor=none;top=0;left=0;bottom=0;right=0;pointerEvents=1;rounded=0;sketch=1;" vertex="1" parent="87">
                    <mxGeometry width="80" height="40" as="geometry">
                        <mxRectangle width="80" height="40" as="alternateBounds"/>
                    </mxGeometry>
                </mxCell>
                <mxCell id="89" value="4 secs" style="text;html=1;resizable=0;autosize=1;align=center;verticalAlign=middle;points=[];fillColor=none;strokeColor=none;rounded=0;sketch=1;fontSize=18;" vertex="1" parent="1">
                    <mxGeometry x="66" y="497" width="70" height="30" as="geometry"/>
                </mxCell>
                <mxCell id="TVICFS0kHj4t4Ta-pwgY-92" value="" style="shape=table;startSize=0;container=1;collapsible=0;childLayout=tableLayout;rounded=0;sketch=1;" vertex="1" parent="1">
                    <mxGeometry x="330" y="198" width="90" height="40" as="geometry"/>
                </mxCell>
                <mxCell id="TVICFS0kHj4t4Ta-pwgY-93" value="" style="shape=partialRectangle;collapsible=0;dropTarget=0;pointerEvents=0;fillColor=none;top=0;left=0;bottom=0;right=0;points=[[0,0.5],[1,0.5]];portConstraint=eastwest;rounded=0;sketch=1;" vertex="1" parent="TVICFS0kHj4t4Ta-pwgY-92">
                    <mxGeometry width="90" height="40" as="geometry"/>
                </mxCell>
                <mxCell id="TVICFS0kHj4t4Ta-pwgY-94" value="sum-into-lfp" style="shape=partialRectangle;html=1;whiteSpace=wrap;connectable=0;overflow=hidden;fillColor=none;top=0;left=0;bottom=0;right=0;pointerEvents=1;rounded=0;sketch=1;" vertex="1" parent="TVICFS0kHj4t4Ta-pwgY-93">
                    <mxGeometry width="90" height="40" as="geometry">
                        <mxRectangle width="90" height="40" as="alternateBounds"/>
                    </mxGeometry>
                </mxCell>
                <mxCell id="TVICFS0kHj4t4Ta-pwgY-99" value="" style="shape=table;startSize=0;container=1;collapsible=0;childLayout=tableLayout;rounded=0;sketch=1;" vertex="1" parent="1">
                    <mxGeometry x="330" y="267" width="90" height="40" as="geometry"/>
                </mxCell>
                <mxCell id="TVICFS0kHj4t4Ta-pwgY-100" value="" style="shape=partialRectangle;collapsible=0;dropTarget=0;pointerEvents=0;fillColor=none;top=0;left=0;bottom=0;right=0;points=[[0,0.5],[1,0.5]];portConstraint=eastwest;rounded=0;sketch=1;" vertex="1" parent="TVICFS0kHj4t4Ta-pwgY-99">
                    <mxGeometry width="90" height="40" as="geometry"/>
                </mxCell>
                <mxCell id="TVICFS0kHj4t4Ta-pwgY-101" value="1" style="shape=partialRectangle;html=1;whiteSpace=wrap;connectable=0;overflow=hidden;fillColor=none;top=0;left=0;bottom=0;right=0;pointerEvents=1;rounded=0;sketch=1;" vertex="1" parent="TVICFS0kHj4t4Ta-pwgY-100">
                    <mxGeometry width="90" height="40" as="geometry">
                        <mxRectangle width="90" height="40" as="alternateBounds"/>
                    </mxGeometry>
                </mxCell>
                <mxCell id="TVICFS0kHj4t4Ta-pwgY-102" value="" style="shape=table;startSize=0;container=1;collapsible=0;childLayout=tableLayout;rounded=0;sketch=1;" vertex="1" parent="1">
                    <mxGeometry x="330" y="316" width="90" height="40" as="geometry"/>
                </mxCell>
                <mxCell id="TVICFS0kHj4t4Ta-pwgY-103" value="" style="shape=partialRectangle;collapsible=0;dropTarget=0;pointerEvents=0;fillColor=none;top=0;left=0;bottom=0;right=0;points=[[0,0.5],[1,0.5]];portConstraint=eastwest;rounded=0;sketch=1;" vertex="1" parent="TVICFS0kHj4t4Ta-pwgY-102">
                    <mxGeometry width="90" height="40" as="geometry"/>
                </mxCell>
                <mxCell id="TVICFS0kHj4t4Ta-pwgY-104" value="2" style="shape=partialRectangle;html=1;whiteSpace=wrap;connectable=0;overflow=hidden;fillColor=none;top=0;left=0;bottom=0;right=0;pointerEvents=1;rounded=0;sketch=1;" vertex="1" parent="TVICFS0kHj4t4Ta-pwgY-103">
                    <mxGeometry width="90" height="40" as="geometry">
                        <mxRectangle width="90" height="40" as="alternateBounds"/>
                    </mxGeometry>
                </mxCell>
                <mxCell id="TVICFS0kHj4t4Ta-pwgY-105" value="" style="shape=table;startSize=0;container=1;collapsible=0;childLayout=tableLayout;rounded=0;sketch=1;" vertex="1" parent="1">
                    <mxGeometry x="488" y="316" width="90" height="40" as="geometry"/>
                </mxCell>
                <mxCell id="TVICFS0kHj4t4Ta-pwgY-106" value="" style="shape=partialRectangle;collapsible=0;dropTarget=0;pointerEvents=0;fillColor=none;top=0;left=0;bottom=0;right=0;points=[[0,0.5],[1,0.5]];portConstraint=eastwest;rounded=0;sketch=1;" vertex="1" parent="TVICFS0kHj4t4Ta-pwgY-105">
                    <mxGeometry width="90" height="40" as="geometry"/>
                </mxCell>
                <mxCell id="TVICFS0kHj4t4Ta-pwgY-107" value="1" style="shape=partialRectangle;html=1;whiteSpace=wrap;connectable=0;overflow=hidden;fillColor=none;top=0;left=0;bottom=0;right=0;pointerEvents=1;rounded=0;sketch=1;" vertex="1" parent="TVICFS0kHj4t4Ta-pwgY-106">
                    <mxGeometry width="90" height="40" as="geometry">
                        <mxRectangle width="90" height="40" as="alternateBounds"/>
                    </mxGeometry>
                </mxCell>
                <mxCell id="TVICFS0kHj4t4Ta-pwgY-108" value="" style="shape=table;startSize=0;container=1;collapsible=0;childLayout=tableLayout;rounded=0;sketch=1;" vertex="1" parent="1">
                    <mxGeometry x="333" y="387" width="90" height="40" as="geometry"/>
                </mxCell>
                <mxCell id="TVICFS0kHj4t4Ta-pwgY-109" value="" style="shape=partialRectangle;collapsible=0;dropTarget=0;pointerEvents=0;fillColor=none;top=0;left=0;bottom=0;right=0;points=[[0,0.5],[1,0.5]];portConstraint=eastwest;rounded=0;sketch=1;" vertex="1" parent="TVICFS0kHj4t4Ta-pwgY-108">
                    <mxGeometry width="90" height="40" as="geometry"/>
                </mxCell>
                <mxCell id="TVICFS0kHj4t4Ta-pwgY-110" value="30" style="shape=partialRectangle;html=1;whiteSpace=wrap;connectable=0;overflow=hidden;fillColor=none;top=0;left=0;bottom=0;right=0;pointerEvents=1;rounded=0;sketch=1;" vertex="1" parent="TVICFS0kHj4t4Ta-pwgY-109">
                    <mxGeometry width="90" height="40" as="geometry">
                        <mxRectangle width="90" height="40" as="alternateBounds"/>
                    </mxGeometry>
                </mxCell>
                <mxCell id="TVICFS0kHj4t4Ta-pwgY-113" style="edgeStyle=none;html=1;entryX=0;entryY=0.5;entryDx=0;entryDy=0;rounded=0;sketch=1;exitX=1;exitY=0.5;exitDx=0;exitDy=0;" edge="1" parent="1" source="55" target="TVICFS0kHj4t4Ta-pwgY-109">
                    <mxGeometry relative="1" as="geometry">
                        <mxPoint x="340" y="346" as="targetPoint"/>
                        <mxPoint x="265" y="346" as="sourcePoint"/>
                    </mxGeometry>
                </mxCell>
                <mxCell id="TVICFS0kHj4t4Ta-pwgY-117" style="edgeStyle=none;html=1;rounded=0;sketch=1;exitX=1;exitY=0.5;exitDx=0;exitDy=0;entryX=0;entryY=0.5;entryDx=0;entryDy=0;" edge="1" parent="1" target="TVICFS0kHj4t4Ta-pwgY-106">
                    <mxGeometry relative="1" as="geometry">
                        <mxPoint x="500" y="291" as="targetPoint"/>
                        <mxPoint x="420" y="291.38" as="sourcePoint"/>
                    </mxGeometry>
                </mxCell>
                <mxCell id="TVICFS0kHj4t4Ta-pwgY-119" style="edgeStyle=none;html=1;rounded=0;sketch=1;exitX=1;exitY=0.5;exitDx=0;exitDy=0;entryX=0.022;entryY=0.894;entryDx=0;entryDy=0;entryPerimeter=0;" edge="1" parent="1" source="TVICFS0kHj4t4Ta-pwgY-103" target="TVICFS0kHj4t4Ta-pwgY-106">
                    <mxGeometry relative="1" as="geometry">
                        <mxPoint x="500" y="287" as="targetPoint"/>
                        <mxPoint x="430" y="301.3800000000001" as="sourcePoint"/>
                    </mxGeometry>
                </mxCell>
                <mxCell id="TVICFS0kHj4t4Ta-pwgY-120" value="..." style="text;html=1;resizable=0;autosize=1;align=center;verticalAlign=middle;points=[];fillColor=none;strokeColor=none;rounded=0;sketch=1;" vertex="1" parent="1">
                    <mxGeometry x="364" y="363" width="30" height="20" as="geometry"/>
                </mxCell>
                <mxCell id="TVICFS0kHj4t4Ta-pwgY-121" value="" style="shape=table;startSize=0;container=1;collapsible=0;childLayout=tableLayout;rounded=0;sketch=1;" vertex="1" parent="1">
                    <mxGeometry x="331.5" y="479" width="90" height="40" as="geometry"/>
                </mxCell>
                <mxCell id="TVICFS0kHj4t4Ta-pwgY-122" value="" style="shape=partialRectangle;collapsible=0;dropTarget=0;pointerEvents=0;fillColor=none;top=0;left=0;bottom=0;right=0;points=[[0,0.5],[1,0.5]];portConstraint=eastwest;rounded=0;sketch=1;" vertex="1" parent="TVICFS0kHj4t4Ta-pwgY-121">
                    <mxGeometry width="90" height="40" as="geometry"/>
                </mxCell>
                <mxCell id="TVICFS0kHj4t4Ta-pwgY-123" value="1" style="shape=partialRectangle;html=1;whiteSpace=wrap;connectable=0;overflow=hidden;fillColor=none;top=0;left=0;bottom=0;right=0;pointerEvents=1;rounded=0;sketch=1;" vertex="1" parent="TVICFS0kHj4t4Ta-pwgY-122">
                    <mxGeometry width="90" height="40" as="geometry">
                        <mxRectangle width="90" height="40" as="alternateBounds"/>
                    </mxGeometry>
                </mxCell>
                <mxCell id="TVICFS0kHj4t4Ta-pwgY-124" value="" style="shape=table;startSize=0;container=1;collapsible=0;childLayout=tableLayout;rounded=0;sketch=1;" vertex="1" parent="1">
                    <mxGeometry x="331.5" y="528" width="90" height="40" as="geometry"/>
                </mxCell>
                <mxCell id="TVICFS0kHj4t4Ta-pwgY-125" value="" style="shape=partialRectangle;collapsible=0;dropTarget=0;pointerEvents=0;fillColor=none;top=0;left=0;bottom=0;right=0;points=[[0,0.5],[1,0.5]];portConstraint=eastwest;rounded=0;sketch=1;" vertex="1" parent="TVICFS0kHj4t4Ta-pwgY-124">
                    <mxGeometry width="90" height="40" as="geometry"/>
                </mxCell>
                <mxCell id="TVICFS0kHj4t4Ta-pwgY-126" value="2" style="shape=partialRectangle;html=1;whiteSpace=wrap;connectable=0;overflow=hidden;fillColor=none;top=0;left=0;bottom=0;right=0;pointerEvents=1;rounded=0;sketch=1;" vertex="1" parent="TVICFS0kHj4t4Ta-pwgY-125">
                    <mxGeometry width="90" height="40" as="geometry">
                        <mxRectangle width="90" height="40" as="alternateBounds"/>
                    </mxGeometry>
                </mxCell>
                <mxCell id="TVICFS0kHj4t4Ta-pwgY-127" value="" style="shape=table;startSize=0;container=1;collapsible=0;childLayout=tableLayout;rounded=0;sketch=1;" vertex="1" parent="1">
                    <mxGeometry x="334.5" y="599" width="90" height="40" as="geometry"/>
                </mxCell>
                <mxCell id="TVICFS0kHj4t4Ta-pwgY-128" value="" style="shape=partialRectangle;collapsible=0;dropTarget=0;pointerEvents=0;fillColor=none;top=0;left=0;bottom=0;right=0;points=[[0,0.5],[1,0.5]];portConstraint=eastwest;rounded=0;sketch=1;" vertex="1" parent="TVICFS0kHj4t4Ta-pwgY-127">
                    <mxGeometry width="90" height="40" as="geometry"/>
                </mxCell>
                <mxCell id="TVICFS0kHj4t4Ta-pwgY-129" value="30" style="shape=partialRectangle;html=1;whiteSpace=wrap;connectable=0;overflow=hidden;fillColor=none;top=0;left=0;bottom=0;right=0;pointerEvents=1;rounded=0;sketch=1;" vertex="1" parent="TVICFS0kHj4t4Ta-pwgY-128">
                    <mxGeometry width="90" height="40" as="geometry">
                        <mxRectangle width="90" height="40" as="alternateBounds"/>
                    </mxGeometry>
                </mxCell>
                <mxCell id="TVICFS0kHj4t4Ta-pwgY-130" value="..." style="text;html=1;resizable=0;autosize=1;align=center;verticalAlign=middle;points=[];fillColor=none;strokeColor=none;rounded=0;sketch=1;" vertex="1" parent="1">
                    <mxGeometry x="365.5" y="575" width="30" height="20" as="geometry"/>
                </mxCell>
                <mxCell id="TVICFS0kHj4t4Ta-pwgY-131" style="edgeStyle=none;html=1;entryX=0;entryY=0.5;entryDx=0;entryDy=0;rounded=0;sketch=1;exitX=1;exitY=0.5;exitDx=0;exitDy=0;" edge="1" parent="1">
                    <mxGeometry relative="1" as="geometry">
                        <mxPoint x="335" y="501" as="targetPoint"/>
                        <mxPoint x="260" y="501" as="sourcePoint"/>
                    </mxGeometry>
                </mxCell>
                <mxCell id="TVICFS0kHj4t4Ta-pwgY-132" style="edgeStyle=none;html=1;rounded=0;sketch=1;entryX=0;entryY=0.5;entryDx=0;entryDy=0;" edge="1" parent="1">
                    <mxGeometry relative="1" as="geometry">
                        <mxPoint x="335" y="550" as="targetPoint"/>
                        <mxPoint x="255" y="550" as="sourcePoint"/>
                    </mxGeometry>
                </mxCell>
                <mxCell id="TVICFS0kHj4t4Ta-pwgY-133" style="edgeStyle=none;html=1;entryX=0;entryY=0.5;entryDx=0;entryDy=0;rounded=0;sketch=1;exitX=1;exitY=0.5;exitDx=0;exitDy=0;" edge="1" parent="1">
                    <mxGeometry relative="1" as="geometry">
                        <mxPoint x="338" y="621" as="targetPoint"/>
                        <mxPoint x="260" y="621" as="sourcePoint"/>
                    </mxGeometry>
                </mxCell>
                <mxCell id="TVICFS0kHj4t4Ta-pwgY-135" style="edgeStyle=none;html=1;rounded=0;sketch=1;exitX=1;exitY=0.5;exitDx=0;exitDy=0;entryX=0;entryY=0.5;entryDx=0;entryDy=0;" edge="1" parent="1">
                    <mxGeometry relative="1" as="geometry">
                        <mxPoint x="492.5" y="541.62" as="targetPoint"/>
                        <mxPoint x="424.5" y="497.0000000000001" as="sourcePoint"/>
                    </mxGeometry>
                </mxCell>
                <mxCell id="TVICFS0kHj4t4Ta-pwgY-136" style="edgeStyle=none;html=1;rounded=0;sketch=1;exitX=1;exitY=0.5;exitDx=0;exitDy=0;entryX=0.022;entryY=0.894;entryDx=0;entryDy=0;entryPerimeter=0;" edge="1" parent="1">
                    <mxGeometry relative="1" as="geometry">
                        <mxPoint x="494.48" y="557.38" as="targetPoint"/>
                        <mxPoint x="424.5" y="541.62" as="sourcePoint"/>
                    </mxGeometry>
                </mxCell>
                <mxCell id="TVICFS0kHj4t4Ta-pwgY-137" value="&amp;nbsp;133 ms x 128 sites" style="text;html=1;resizable=0;autosize=1;align=center;verticalAlign=middle;points=[];fillColor=none;strokeColor=none;rounded=0;sketch=1;" vertex="1" parent="1">
                    <mxGeometry x="315" y="244" width="120" height="20" as="geometry"/>
                </mxCell>
                <mxCell id="TVICFS0kHj4t4Ta-pwgY-138" value="4 secs x 128 sites" style="text;html=1;resizable=0;autosize=1;align=center;verticalAlign=middle;points=[];fillColor=none;strokeColor=none;rounded=0;sketch=1;" vertex="1" parent="1">
                    <mxGeometry x="478" y="287" width="110" height="20" as="geometry"/>
                </mxCell>
                <mxCell id="TVICFS0kHj4t4Ta-pwgY-139" value="40 secs x 128 sites" style="text;html=1;resizable=0;autosize=1;align=center;verticalAlign=middle;points=[];fillColor=none;strokeColor=none;rounded=0;sketch=1;" vertex="1" parent="1">
                    <mxGeometry x="648" y="367" width="120" height="20" as="geometry"/>
                </mxCell>
                <mxCell id="TVICFS0kHj4t4Ta-pwgY-140" value="40 secs x 128 sites" style="text;html=1;resizable=0;autosize=1;align=center;verticalAlign=middle;points=[];fillColor=none;strokeColor=none;rounded=0;sketch=1;" vertex="1" parent="1">
                    <mxGeometry x="864" y="370" width="120" height="20" as="geometry"/>
                </mxCell>
                <mxCell id="PQrTYAjEyC5QOexO3na0-89" value="&lt;font style=&quot;font-size: 18px&quot;&gt;Sorting&lt;/font&gt;" style="text;html=1;resizable=0;autosize=1;align=center;verticalAlign=middle;points=[];fillColor=none;strokeColor=none;rounded=0;strokeWidth=10;sketch=1;" vertex="1" parent="1">
                    <mxGeometry x="1060" y="139" width="70" height="20" as="geometry"/>
                </mxCell>
                <mxCell id="ePqyMbN4v-0GWkYTJ7su-89" value="" style="endArrow=none;dashed=1;html=1;sketch=1;fontSize=12;" edge="1" parent="1">
                    <mxGeometry width="50" height="50" relative="1" as="geometry">
                        <mxPoint x="810" y="680" as="sourcePoint"/>
                        <mxPoint x="810" y="117" as="targetPoint"/>
                    </mxGeometry>
                </mxCell>
                <mxCell id="ePqyMbN4v-0GWkYTJ7su-90" value="" style="endArrow=none;dashed=1;html=1;sketch=1;fontSize=12;" edge="1" parent="1">
                    <mxGeometry width="50" height="50" relative="1" as="geometry">
                        <mxPoint x="1010" y="690" as="sourcePoint"/>
                        <mxPoint x="1010" y="120" as="targetPoint"/>
                    </mxGeometry>
                </mxCell>
            </root>
        </mxGraphModel>
    </diagram>
    <diagram id="X2YZmN9wY-D4YKuuBB5m" name="Each unit trace">
        <mxGraphModel dx="2364" dy="974" grid="1" gridSize="10" guides="1" tooltips="1" connect="1" arrows="1" fold="1" page="1" pageScale="1" pageWidth="1169" pageHeight="827" background="none" math="0" shadow="0">
            <root>
                <mxCell id="RGSGin7HSIIOFej64FQr-0"/>
                <mxCell id="RGSGin7HSIIOFej64FQr-1" parent="RGSGin7HSIIOFej64FQr-0"/>
                <mxCell id="lTQcFziOKOacI90HI9VL-0" value="" style="shape=table;startSize=0;container=1;collapsible=0;childLayout=tableLayout;rounded=0;sketch=1;" vertex="1" parent="RGSGin7HSIIOFej64FQr-1">
                    <mxGeometry x="166" y="172" width="90" height="40" as="geometry"/>
                </mxCell>
                <mxCell id="lTQcFziOKOacI90HI9VL-1" value="" style="shape=partialRectangle;collapsible=0;dropTarget=0;pointerEvents=0;fillColor=none;top=0;left=0;bottom=0;right=0;points=[[0,0.5],[1,0.5]];portConstraint=eastwest;rounded=0;sketch=1;" vertex="1" parent="lTQcFziOKOacI90HI9VL-0">
                    <mxGeometry width="90" height="40" as="geometry"/>
                </mxCell>
                <mxCell id="lTQcFziOKOacI90HI9VL-2" value="chunking" style="shape=partialRectangle;html=1;whiteSpace=wrap;connectable=0;overflow=hidden;fillColor=none;top=0;left=0;bottom=0;right=0;pointerEvents=1;rounded=0;sketch=1;" vertex="1" parent="lTQcFziOKOacI90HI9VL-1">
                    <mxGeometry width="90" height="40" as="geometry">
                        <mxRectangle width="90" height="40" as="alternateBounds"/>
                    </mxGeometry>
                </mxCell>
                <mxCell id="lTQcFziOKOacI90HI9VL-3" value="" style="shape=table;startSize=0;container=1;collapsible=0;childLayout=tableLayout;rounded=0;sketch=1;" vertex="1" parent="RGSGin7HSIIOFej64FQr-1">
                    <mxGeometry x="488" y="170" width="90" height="40" as="geometry"/>
                </mxCell>
                <mxCell id="lTQcFziOKOacI90HI9VL-4" value="" style="shape=partialRectangle;collapsible=0;dropTarget=0;pointerEvents=0;fillColor=none;top=0;left=0;bottom=0;right=0;points=[[0,0.5],[1,0.5]];portConstraint=eastwest;rounded=0;sketch=1;" vertex="1" parent="lTQcFziOKOacI90HI9VL-3">
                    <mxGeometry width="90" height="40" as="geometry"/>
                </mxCell>
                <mxCell id="lTQcFziOKOacI90HI9VL-5" value="stacking" style="shape=partialRectangle;html=1;whiteSpace=wrap;connectable=0;overflow=hidden;fillColor=none;top=0;left=0;bottom=0;right=0;pointerEvents=1;rounded=0;sketch=1;" vertex="1" parent="lTQcFziOKOacI90HI9VL-4">
                    <mxGeometry width="90" height="40" as="geometry">
                        <mxRectangle width="90" height="40" as="alternateBounds"/>
                    </mxGeometry>
                </mxCell>
                <mxCell id="lTQcFziOKOacI90HI9VL-6" value="" style="shape=table;startSize=0;container=1;collapsible=0;childLayout=tableLayout;rounded=0;sketch=1;" vertex="1" parent="RGSGin7HSIIOFej64FQr-1">
                    <mxGeometry x="165" y="267" width="90" height="40" as="geometry"/>
                </mxCell>
                <mxCell id="lTQcFziOKOacI90HI9VL-7" value="" style="shape=partialRectangle;collapsible=0;dropTarget=0;pointerEvents=0;fillColor=none;top=0;left=0;bottom=0;right=0;points=[[0,0.5],[1,0.5]];portConstraint=eastwest;rounded=0;sketch=1;" vertex="1" parent="lTQcFziOKOacI90HI9VL-6">
                    <mxGeometry width="90" height="40" as="geometry"/>
                </mxCell>
                <mxCell id="lTQcFziOKOacI90HI9VL-8" value="file 1" style="shape=partialRectangle;html=1;whiteSpace=wrap;connectable=0;overflow=hidden;fillColor=none;top=0;left=0;bottom=0;right=0;pointerEvents=1;rounded=0;sketch=1;" vertex="1" parent="lTQcFziOKOacI90HI9VL-7">
                    <mxGeometry width="90" height="40" as="geometry">
                        <mxRectangle width="90" height="40" as="alternateBounds"/>
                    </mxGeometry>
                </mxCell>
                <mxCell id="lTQcFziOKOacI90HI9VL-9" style="edgeStyle=none;html=1;entryX=0;entryY=0.5;entryDx=0;entryDy=0;rounded=0;sketch=1;exitX=1;exitY=0.5;exitDx=0;exitDy=0;" edge="1" parent="RGSGin7HSIIOFej64FQr-1" source="lTQcFziOKOacI90HI9VL-7" target="lqnttasn9QhU6t0u8gb4-6">
                    <mxGeometry relative="1" as="geometry">
                        <mxPoint x="330" y="288.5" as="targetPoint"/>
                        <mxPoint x="173" y="287" as="sourcePoint"/>
                    </mxGeometry>
                </mxCell>
                <mxCell id="lTQcFziOKOacI90HI9VL-11" value="&lt;font style=&quot;font-size: 18px&quot;&gt;Each unit trace data engineering&lt;/font&gt;" style="text;html=1;resizable=0;autosize=1;align=center;verticalAlign=middle;points=[];fillColor=none;strokeColor=none;rounded=0;strokeWidth=10;sketch=1;" vertex="1" parent="RGSGin7HSIIOFej64FQr-1">
                    <mxGeometry x="244" y="100" width="270" height="20" as="geometry"/>
                </mxCell>
                <mxCell id="lTQcFziOKOacI90HI9VL-12" value="" style="shape=table;startSize=0;container=1;collapsible=0;childLayout=tableLayout;rounded=0;sketch=1;" vertex="1" parent="RGSGin7HSIIOFej64FQr-1">
                    <mxGeometry x="658" y="170" width="90" height="40" as="geometry"/>
                </mxCell>
                <mxCell id="lTQcFziOKOacI90HI9VL-13" value="" style="shape=partialRectangle;collapsible=0;dropTarget=0;pointerEvents=0;fillColor=none;top=0;left=0;bottom=0;right=0;points=[[0,0.5],[1,0.5]];portConstraint=eastwest;rounded=0;sketch=1;" vertex="1" parent="lTQcFziOKOacI90HI9VL-12">
                    <mxGeometry width="90" height="40" as="geometry"/>
                </mxCell>
                <mxCell id="lTQcFziOKOacI90HI9VL-14" value="stacking" style="shape=partialRectangle;html=1;whiteSpace=wrap;connectable=0;overflow=hidden;fillColor=none;top=0;left=0;bottom=0;right=0;pointerEvents=1;rounded=0;sketch=1;" vertex="1" parent="lTQcFziOKOacI90HI9VL-13">
                    <mxGeometry width="90" height="40" as="geometry">
                        <mxRectangle width="90" height="40" as="alternateBounds"/>
                    </mxGeometry>
                </mxCell>
                <mxCell id="lTQcFziOKOacI90HI9VL-15" value="" style="shape=table;startSize=0;container=1;collapsible=0;childLayout=tableLayout;rounded=0;sketch=1;" vertex="1" parent="RGSGin7HSIIOFej64FQr-1">
                    <mxGeometry x="673" y="398" width="80" height="40" as="geometry"/>
                </mxCell>
                <mxCell id="lTQcFziOKOacI90HI9VL-16" value="" style="shape=partialRectangle;collapsible=0;dropTarget=0;pointerEvents=0;fillColor=none;top=0;left=0;bottom=0;right=0;points=[[0,0.5],[1,0.5]];portConstraint=eastwest;rounded=0;sketch=1;" vertex="1" parent="lTQcFziOKOacI90HI9VL-15">
                    <mxGeometry width="80" height="40" as="geometry"/>
                </mxCell>
                <mxCell id="lTQcFziOKOacI90HI9VL-17" value="1" style="shape=partialRectangle;html=1;whiteSpace=wrap;connectable=0;overflow=hidden;fillColor=none;top=0;left=0;bottom=0;right=0;pointerEvents=1;rounded=0;sketch=1;" vertex="1" parent="lTQcFziOKOacI90HI9VL-16">
                    <mxGeometry width="80" height="40" as="geometry">
                        <mxRectangle width="80" height="40" as="alternateBounds"/>
                    </mxGeometry>
                </mxCell>
                <mxCell id="lTQcFziOKOacI90HI9VL-21" value="" style="shape=table;startSize=0;container=1;collapsible=0;childLayout=tableLayout;rounded=0;sketch=1;" vertex="1" parent="RGSGin7HSIIOFej64FQr-1">
                    <mxGeometry x="169" y="530" width="90" height="40" as="geometry"/>
                </mxCell>
                <mxCell id="lTQcFziOKOacI90HI9VL-22" value="" style="shape=partialRectangle;collapsible=0;dropTarget=0;pointerEvents=0;fillColor=none;top=0;left=0;bottom=0;right=0;points=[[0,0.5],[1,0.5]];portConstraint=eastwest;rounded=0;sketch=1;" vertex="1" parent="lTQcFziOKOacI90HI9VL-21">
                    <mxGeometry width="90" height="40" as="geometry"/>
                </mxCell>
                <mxCell id="lTQcFziOKOacI90HI9VL-23" value="1" style="shape=partialRectangle;html=1;whiteSpace=wrap;connectable=0;overflow=hidden;fillColor=none;top=0;left=0;bottom=0;right=0;pointerEvents=1;rounded=0;sketch=1;" vertex="1" parent="lTQcFziOKOacI90HI9VL-22">
                    <mxGeometry width="90" height="40" as="geometry">
                        <mxRectangle width="90" height="40" as="alternateBounds"/>
                    </mxGeometry>
                </mxCell>
                <mxCell id="lTQcFziOKOacI90HI9VL-24" style="edgeStyle=none;html=1;exitX=1;exitY=0.5;exitDx=0;exitDy=0;entryX=0.989;entryY=0.75;entryDx=0;entryDy=0;entryPerimeter=0;rounded=0;sketch=1;" edge="1" parent="lTQcFziOKOacI90HI9VL-21">
                    <mxGeometry relative="1" as="geometry">
                        <mxPoint x="90" y="21" as="sourcePoint"/>
                        <mxPoint x="89.00999999999999" y="31" as="targetPoint"/>
                    </mxGeometry>
                </mxCell>
                <mxCell id="lTQcFziOKOacI90HI9VL-25" value="" style="shape=table;startSize=0;container=1;collapsible=0;childLayout=tableLayout;rounded=0;sketch=1;" vertex="1" parent="RGSGin7HSIIOFej64FQr-1">
                    <mxGeometry x="169" y="587" width="90" height="40" as="geometry"/>
                </mxCell>
                <mxCell id="lTQcFziOKOacI90HI9VL-26" value="" style="shape=partialRectangle;collapsible=0;dropTarget=0;pointerEvents=0;fillColor=none;top=0;left=0;bottom=0;right=0;points=[[0,0.5],[1,0.5]];portConstraint=eastwest;rounded=0;sketch=1;" vertex="1" parent="lTQcFziOKOacI90HI9VL-25">
                    <mxGeometry width="90" height="40" as="geometry"/>
                </mxCell>
                <mxCell id="lTQcFziOKOacI90HI9VL-27" value="2" style="shape=partialRectangle;html=1;whiteSpace=wrap;connectable=0;overflow=hidden;fillColor=none;top=0;left=0;bottom=0;right=0;pointerEvents=1;rounded=0;sketch=1;" vertex="1" parent="lTQcFziOKOacI90HI9VL-26">
                    <mxGeometry width="90" height="40" as="geometry">
                        <mxRectangle width="90" height="40" as="alternateBounds"/>
                    </mxGeometry>
                </mxCell>
                <mxCell id="lTQcFziOKOacI90HI9VL-28" value="" style="shape=table;startSize=0;container=1;collapsible=0;childLayout=tableLayout;rounded=0;sketch=1;" vertex="1" parent="RGSGin7HSIIOFej64FQr-1">
                    <mxGeometry x="169" y="652" width="90" height="40" as="geometry"/>
                </mxCell>
                <mxCell id="lTQcFziOKOacI90HI9VL-29" value="" style="shape=partialRectangle;collapsible=0;dropTarget=0;pointerEvents=0;fillColor=none;top=0;left=0;bottom=0;right=0;points=[[0,0.5],[1,0.5]];portConstraint=eastwest;rounded=0;sketch=1;" vertex="1" parent="lTQcFziOKOacI90HI9VL-28">
                    <mxGeometry width="90" height="40" as="geometry"/>
                </mxCell>
                <mxCell id="lTQcFziOKOacI90HI9VL-30" value="30" style="shape=partialRectangle;html=1;whiteSpace=wrap;connectable=0;overflow=hidden;fillColor=none;top=0;left=0;bottom=0;right=0;pointerEvents=1;rounded=0;sketch=1;" vertex="1" parent="lTQcFziOKOacI90HI9VL-29">
                    <mxGeometry width="90" height="40" as="geometry">
                        <mxRectangle width="90" height="40" as="alternateBounds"/>
                    </mxGeometry>
                </mxCell>
                <mxCell id="lTQcFziOKOacI90HI9VL-31" value="" style="shape=table;startSize=0;container=1;collapsible=0;childLayout=tableLayout;rounded=0;sketch=1;" vertex="1" parent="RGSGin7HSIIOFej64FQr-1">
                    <mxGeometry x="166" y="389.5" width="90" height="40" as="geometry"/>
                </mxCell>
                <mxCell id="lTQcFziOKOacI90HI9VL-32" value="" style="shape=partialRectangle;collapsible=0;dropTarget=0;pointerEvents=0;fillColor=none;top=0;left=0;bottom=0;right=0;points=[[0,0.5],[1,0.5]];portConstraint=eastwest;rounded=0;sketch=1;" vertex="1" parent="lTQcFziOKOacI90HI9VL-31">
                    <mxGeometry width="90" height="40" as="geometry"/>
                </mxCell>
                <mxCell id="lTQcFziOKOacI90HI9VL-33" value="file 30" style="shape=partialRectangle;html=1;whiteSpace=wrap;connectable=0;overflow=hidden;fillColor=none;top=0;left=0;bottom=0;right=0;pointerEvents=1;rounded=0;sketch=1;" vertex="1" parent="lTQcFziOKOacI90HI9VL-32">
                    <mxGeometry width="90" height="40" as="geometry">
                        <mxRectangle width="90" height="40" as="alternateBounds"/>
                    </mxGeometry>
                </mxCell>
                <mxCell id="lTQcFziOKOacI90HI9VL-39" value="..." style="text;html=1;resizable=0;autosize=1;align=center;verticalAlign=middle;points=[];fillColor=none;strokeColor=none;rounded=0;sketch=1;" vertex="1" parent="RGSGin7HSIIOFej64FQr-1">
                    <mxGeometry x="199" y="631" width="30" height="20" as="geometry"/>
                </mxCell>
                <mxCell id="lTQcFziOKOacI90HI9VL-40" value="simulation level" style="text;html=1;resizable=0;autosize=1;align=center;verticalAlign=middle;points=[];fillColor=none;strokeColor=none;rounded=0;sketch=1;" vertex="1" parent="RGSGin7HSIIOFej64FQr-1">
                    <mxGeometry x="483" y="150" width="100" height="20" as="geometry"/>
                </mxCell>
                <mxCell id="lTQcFziOKOacI90HI9VL-41" value="campaign level" style="text;html=1;resizable=0;autosize=1;align=center;verticalAlign=middle;points=[];fillColor=none;strokeColor=none;rounded=0;sketch=1;" vertex="1" parent="RGSGin7HSIIOFej64FQr-1">
                    <mxGeometry x="653" y="150" width="100" height="20" as="geometry"/>
                </mxCell>
                <mxCell id="lTQcFziOKOacI90HI9VL-42" style="edgeStyle=none;html=1;entryX=0;entryY=0.5;entryDx=0;entryDy=0;exitX=1;exitY=0.5;exitDx=0;exitDy=0;rounded=0;sketch=1;" edge="1" parent="RGSGin7HSIIOFej64FQr-1" target="lTQcFziOKOacI90HI9VL-16">
                    <mxGeometry relative="1" as="geometry">
                        <mxPoint x="483" y="318" as="targetPoint"/>
                        <mxPoint x="578" y="336" as="sourcePoint"/>
                    </mxGeometry>
                </mxCell>
                <mxCell id="lTQcFziOKOacI90HI9VL-43" style="edgeStyle=none;html=1;entryX=0;entryY=0.5;entryDx=0;entryDy=0;rounded=0;sketch=1;" edge="1" parent="RGSGin7HSIIOFej64FQr-1" target="lTQcFziOKOacI90HI9VL-16">
                    <mxGeometry relative="1" as="geometry">
                        <mxPoint x="678" y="368" as="targetPoint"/>
                        <mxPoint x="590" y="610" as="sourcePoint"/>
                    </mxGeometry>
                </mxCell>
                <mxCell id="lTQcFziOKOacI90HI9VL-46" value="" style="shape=table;startSize=0;container=1;collapsible=0;childLayout=tableLayout;rounded=0;sketch=1;" vertex="1" parent="RGSGin7HSIIOFej64FQr-1">
                    <mxGeometry x="885" y="398" width="80" height="40" as="geometry"/>
                </mxCell>
                <mxCell id="lTQcFziOKOacI90HI9VL-47" value="" style="shape=partialRectangle;collapsible=0;dropTarget=0;pointerEvents=0;fillColor=none;top=0;left=0;bottom=0;right=0;points=[[0,0.5],[1,0.5]];portConstraint=eastwest;rounded=0;sketch=1;" vertex="1" parent="lTQcFziOKOacI90HI9VL-46">
                    <mxGeometry width="80" height="40" as="geometry"/>
                </mxCell>
                <mxCell id="lTQcFziOKOacI90HI9VL-48" value="1" style="shape=partialRectangle;html=1;whiteSpace=wrap;connectable=0;overflow=hidden;fillColor=none;top=0;left=0;bottom=0;right=0;pointerEvents=1;rounded=0;sketch=1;" vertex="1" parent="lTQcFziOKOacI90HI9VL-47">
                    <mxGeometry width="80" height="40" as="geometry">
                        <mxRectangle width="80" height="40" as="alternateBounds"/>
                    </mxGeometry>
                </mxCell>
                <mxCell id="lTQcFziOKOacI90HI9VL-49" style="edgeStyle=none;html=1;entryX=0;entryY=0.5;entryDx=0;entryDy=0;exitX=1;exitY=0.5;exitDx=0;exitDy=0;rounded=0;sketch=1;" edge="1" parent="RGSGin7HSIIOFej64FQr-1" source="lTQcFziOKOacI90HI9VL-16" target="lTQcFziOKOacI90HI9VL-47">
                    <mxGeometry relative="1" as="geometry">
                        <mxPoint x="683.0000000000005" y="428" as="targetPoint"/>
                        <mxPoint x="583" y="328" as="sourcePoint"/>
                    </mxGeometry>
                </mxCell>
                <mxCell id="lTQcFziOKOacI90HI9VL-50" value="&lt;font style=&quot;font-size: 12px&quot;&gt;steeve.laquitaine@epfl.ch&lt;/font&gt;" style="text;html=1;resizable=0;autosize=1;align=center;verticalAlign=middle;points=[];fillColor=none;strokeColor=none;rounded=0;strokeWidth=10;sketch=1;" vertex="1" parent="RGSGin7HSIIOFej64FQr-1">
                    <mxGeometry x="15" y="20" width="150" height="20" as="geometry"/>
                </mxCell>
                <mxCell id="lTQcFziOKOacI90HI9VL-51" value="" style="shape=table;startSize=0;container=1;collapsible=0;childLayout=tableLayout;rounded=0;sketch=1;" vertex="1" parent="RGSGin7HSIIOFej64FQr-1">
                    <mxGeometry x="55" y="322" width="80" height="40" as="geometry"/>
                </mxCell>
                <mxCell id="lTQcFziOKOacI90HI9VL-52" value="" style="shape=partialRectangle;collapsible=0;dropTarget=0;pointerEvents=0;fillColor=none;top=0;left=0;bottom=0;right=0;points=[[0,0.5],[1,0.5]];portConstraint=eastwest;rounded=0;sketch=1;" vertex="1" parent="lTQcFziOKOacI90HI9VL-51">
                    <mxGeometry width="80" height="40" as="geometry"/>
                </mxCell>
                <mxCell id="lTQcFziOKOacI90HI9VL-53" value="BlueConfig 1" style="shape=partialRectangle;html=1;whiteSpace=wrap;connectable=0;overflow=hidden;fillColor=none;top=0;left=0;bottom=0;right=0;pointerEvents=1;rounded=0;sketch=1;" vertex="1" parent="lTQcFziOKOacI90HI9VL-52">
                    <mxGeometry width="80" height="40" as="geometry">
                        <mxRectangle width="80" height="40" as="alternateBounds"/>
                    </mxGeometry>
                </mxCell>
                <mxCell id="lTQcFziOKOacI90HI9VL-54" value="" style="shape=table;startSize=0;container=1;collapsible=0;childLayout=tableLayout;rounded=0;sketch=1;" vertex="1" parent="RGSGin7HSIIOFej64FQr-1">
                    <mxGeometry x="47" y="171" width="90" height="40" as="geometry"/>
                </mxCell>
                <mxCell id="lTQcFziOKOacI90HI9VL-55" value="" style="shape=partialRectangle;collapsible=0;dropTarget=0;pointerEvents=0;fillColor=none;top=0;left=0;bottom=0;right=0;points=[[0,0.5],[1,0.5]];portConstraint=eastwest;rounded=0;sketch=1;" vertex="1" parent="lTQcFziOKOacI90HI9VL-54">
                    <mxGeometry width="90" height="40" as="geometry"/>
                </mxCell>
                <mxCell id="lTQcFziOKOacI90HI9VL-56" value="report" style="shape=partialRectangle;html=1;whiteSpace=wrap;connectable=0;overflow=hidden;fillColor=none;top=0;left=0;bottom=0;right=0;pointerEvents=1;rounded=0;sketch=1;" vertex="1" parent="lTQcFziOKOacI90HI9VL-55">
                    <mxGeometry width="90" height="40" as="geometry">
                        <mxRectangle width="90" height="40" as="alternateBounds"/>
                    </mxGeometry>
                </mxCell>
                <mxCell id="lTQcFziOKOacI90HI9VL-57" style="edgeStyle=none;html=1;entryX=0;entryY=0.5;entryDx=0;entryDy=0;rounded=0;sketch=1;exitX=1;exitY=0.5;exitDx=0;exitDy=0;" edge="1" parent="RGSGin7HSIIOFej64FQr-1" source="lTQcFziOKOacI90HI9VL-52" target="lTQcFziOKOacI90HI9VL-7">
                    <mxGeometry relative="1" as="geometry">
                        <mxPoint x="360.03999999999996" y="318.9999999999998" as="targetPoint"/>
                        <mxPoint x="265" y="297" as="sourcePoint"/>
                    </mxGeometry>
                </mxCell>
                <mxCell id="lTQcFziOKOacI90HI9VL-58" style="edgeStyle=none;html=1;entryX=-0.003;entryY=0.775;entryDx=0;entryDy=0;rounded=0;sketch=1;entryPerimeter=0;" edge="1" parent="RGSGin7HSIIOFej64FQr-1" source="lTQcFziOKOacI90HI9VL-52" target="lTQcFziOKOacI90HI9VL-32">
                    <mxGeometry relative="1" as="geometry">
                        <mxPoint x="175" y="297" as="targetPoint"/>
                        <mxPoint x="130" y="336" as="sourcePoint"/>
                    </mxGeometry>
                </mxCell>
                <mxCell id="lTQcFziOKOacI90HI9VL-59" value="&lt;font style=&quot;font-size: 12px&quot;&gt;4 secs&lt;/font&gt;" style="text;html=1;resizable=0;autosize=1;align=center;verticalAlign=middle;points=[];fillColor=none;strokeColor=none;rounded=0;sketch=1;fontSize=18;" vertex="1" parent="RGSGin7HSIIOFej64FQr-1">
                    <mxGeometry x="68" y="291" width="50" height="30" as="geometry"/>
                </mxCell>
                <mxCell id="lTQcFziOKOacI90HI9VL-60" value="&lt;font style=&quot;font-size: 12px&quot;&gt;133 ms x 128 sites x 30K cells&lt;/font&gt;" style="text;html=1;resizable=0;autosize=1;align=center;verticalAlign=middle;points=[];fillColor=none;strokeColor=none;rounded=0;sketch=1;fontSize=18;" vertex="1" parent="RGSGin7HSIIOFej64FQr-1">
                    <mxGeometry x="128" y="237" width="180" height="30" as="geometry"/>
                </mxCell>
                <mxCell id="lTQcFziOKOacI90HI9VL-61" value="" style="shape=table;startSize=0;container=1;collapsible=0;childLayout=tableLayout;rounded=0;sketch=1;" vertex="1" parent="RGSGin7HSIIOFej64FQr-1">
                    <mxGeometry x="60" y="587" width="80" height="40" as="geometry"/>
                </mxCell>
                <mxCell id="lTQcFziOKOacI90HI9VL-62" value="" style="shape=partialRectangle;collapsible=0;dropTarget=0;pointerEvents=0;fillColor=none;top=0;left=0;bottom=0;right=0;points=[[0,0.5],[1,0.5]];portConstraint=eastwest;rounded=0;sketch=1;" vertex="1" parent="lTQcFziOKOacI90HI9VL-61">
                    <mxGeometry width="80" height="40" as="geometry"/>
                </mxCell>
                <mxCell id="lTQcFziOKOacI90HI9VL-63" value="BlueConfig 10" style="shape=partialRectangle;html=1;whiteSpace=wrap;connectable=0;overflow=hidden;fillColor=none;top=0;left=0;bottom=0;right=0;pointerEvents=1;rounded=0;sketch=1;" vertex="1" parent="lTQcFziOKOacI90HI9VL-62">
                    <mxGeometry width="80" height="40" as="geometry">
                        <mxRectangle width="80" height="40" as="alternateBounds"/>
                    </mxGeometry>
                </mxCell>
                <mxCell id="lTQcFziOKOacI90HI9VL-96" style="edgeStyle=none;html=1;entryX=0;entryY=0.5;entryDx=0;entryDy=0;rounded=0;sketch=1;exitX=1;exitY=0.5;exitDx=0;exitDy=0;" edge="1" parent="RGSGin7HSIIOFej64FQr-1">
                    <mxGeometry relative="1" as="geometry">
                        <mxPoint x="340" y="674" as="targetPoint"/>
                        <mxPoint x="262" y="674" as="sourcePoint"/>
                    </mxGeometry>
                </mxCell>
                <mxCell id="lTQcFziOKOacI90HI9VL-101" value="40 secs x 128 sites" style="text;html=1;resizable=0;autosize=1;align=center;verticalAlign=middle;points=[];fillColor=none;strokeColor=none;rounded=0;sketch=1;" vertex="1" parent="RGSGin7HSIIOFej64FQr-1">
                    <mxGeometry x="648" y="367" width="120" height="20" as="geometry"/>
                </mxCell>
                <mxCell id="lTQcFziOKOacI90HI9VL-102" value="40 secs x 128 sites" style="text;html=1;resizable=0;autosize=1;align=center;verticalAlign=middle;points=[];fillColor=none;strokeColor=none;rounded=0;sketch=1;" vertex="1" parent="RGSGin7HSIIOFej64FQr-1">
                    <mxGeometry x="864" y="370" width="120" height="20" as="geometry"/>
                </mxCell>
                <mxCell id="lTQcFziOKOacI90HI9VL-106" value="&lt;font style=&quot;font-size: 18px&quot;&gt;Ground truth&lt;/font&gt;" style="text;html=1;resizable=0;autosize=1;align=center;verticalAlign=middle;points=[];fillColor=none;strokeColor=none;rounded=0;strokeWidth=10;sketch=1;" vertex="1" parent="RGSGin7HSIIOFej64FQr-1">
                    <mxGeometry x="1000" y="100" width="120" height="20" as="geometry"/>
                </mxCell>
                <mxCell id="lqnttasn9QhU6t0u8gb4-2" value="" style="shape=table;startSize=0;container=1;collapsible=0;childLayout=tableLayout;rounded=0;sketch=1;" vertex="1" parent="RGSGin7HSIIOFej64FQr-1">
                    <mxGeometry x="343" y="299" width="90" height="40" as="geometry"/>
                </mxCell>
                <mxCell id="lqnttasn9QhU6t0u8gb4-3" value="" style="shape=partialRectangle;collapsible=0;dropTarget=0;pointerEvents=0;fillColor=none;top=0;left=0;bottom=0;right=0;points=[[0,0.5],[1,0.5]];portConstraint=eastwest;rounded=0;sketch=1;" vertex="1" parent="lqnttasn9QhU6t0u8gb4-2">
                    <mxGeometry width="90" height="40" as="geometry"/>
                </mxCell>
                <mxCell id="lqnttasn9QhU6t0u8gb4-4" value="1000th near-probe cell" style="shape=partialRectangle;html=1;whiteSpace=wrap;connectable=0;overflow=hidden;fillColor=none;top=0;left=0;bottom=0;right=0;pointerEvents=1;rounded=0;sketch=1;" vertex="1" parent="lqnttasn9QhU6t0u8gb4-3">
                    <mxGeometry width="90" height="40" as="geometry">
                        <mxRectangle width="90" height="40" as="alternateBounds"/>
                    </mxGeometry>
                </mxCell>
                <mxCell id="lqnttasn9QhU6t0u8gb4-5" value="" style="shape=table;startSize=0;container=1;collapsible=0;childLayout=tableLayout;rounded=0;sketch=1;" vertex="1" parent="RGSGin7HSIIOFej64FQr-1">
                    <mxGeometry x="341" y="240" width="90" height="40" as="geometry"/>
                </mxCell>
                <mxCell id="lqnttasn9QhU6t0u8gb4-6" value="" style="shape=partialRectangle;collapsible=0;dropTarget=0;pointerEvents=0;fillColor=none;top=0;left=0;bottom=0;right=0;points=[[0,0.5],[1,0.5]];portConstraint=eastwest;rounded=0;sketch=1;" vertex="1" parent="lqnttasn9QhU6t0u8gb4-5">
                    <mxGeometry width="90" height="40" as="geometry"/>
                </mxCell>
                <mxCell id="lqnttasn9QhU6t0u8gb4-7" value="1" style="shape=partialRectangle;html=1;whiteSpace=wrap;connectable=0;overflow=hidden;fillColor=none;top=0;left=0;bottom=0;right=0;pointerEvents=1;rounded=0;sketch=1;" vertex="1" parent="lqnttasn9QhU6t0u8gb4-6">
                    <mxGeometry width="90" height="40" as="geometry">
                        <mxRectangle width="90" height="40" as="alternateBounds"/>
                    </mxGeometry>
                </mxCell>
                <mxCell id="lqnttasn9QhU6t0u8gb4-8" value="4 secs x 128 sites&amp;nbsp;" style="text;html=1;resizable=0;autosize=1;align=center;verticalAlign=middle;points=[];fillColor=none;strokeColor=none;rounded=0;sketch=1;" vertex="1" parent="RGSGin7HSIIOFej64FQr-1">
                    <mxGeometry x="331" y="217" width="110" height="20" as="geometry"/>
                </mxCell>
                <mxCell id="lqnttasn9QhU6t0u8gb4-9" style="edgeStyle=none;html=1;entryX=0;entryY=0.5;entryDx=0;entryDy=0;rounded=0;sketch=1;exitX=1.011;exitY=0.7;exitDx=0;exitDy=0;exitPerimeter=0;" edge="1" parent="RGSGin7HSIIOFej64FQr-1" source="lTQcFziOKOacI90HI9VL-7" target="lqnttasn9QhU6t0u8gb4-3">
                    <mxGeometry relative="1" as="geometry">
                        <mxPoint x="350" y="262" as="targetPoint"/>
                        <mxPoint x="260" y="290" as="sourcePoint"/>
                    </mxGeometry>
                </mxCell>
                <mxCell id="lqnttasn9QhU6t0u8gb4-10" value="..." style="text;html=1;resizable=0;autosize=1;align=center;verticalAlign=middle;points=[];fillColor=none;strokeColor=none;rounded=0;sketch=1;" vertex="1" parent="RGSGin7HSIIOFej64FQr-1">
                    <mxGeometry x="370" y="277" width="30" height="20" as="geometry"/>
                </mxCell>
                <mxCell id="lqnttasn9QhU6t0u8gb4-11" value="" style="shape=table;startSize=0;container=1;collapsible=0;childLayout=tableLayout;rounded=0;sketch=1;" vertex="1" parent="RGSGin7HSIIOFej64FQr-1">
                    <mxGeometry x="340" y="170" width="90" height="40" as="geometry"/>
                </mxCell>
                <mxCell id="lqnttasn9QhU6t0u8gb4-12" value="" style="shape=partialRectangle;collapsible=0;dropTarget=0;pointerEvents=0;fillColor=none;top=0;left=0;bottom=0;right=0;points=[[0,0.5],[1,0.5]];portConstraint=eastwest;rounded=0;sketch=1;" vertex="1" parent="lqnttasn9QhU6t0u8gb4-11">
                    <mxGeometry width="90" height="40" as="geometry"/>
                </mxCell>
                <mxCell id="lqnttasn9QhU6t0u8gb4-13" value="Near-probe cell filtering" style="shape=partialRectangle;html=1;whiteSpace=wrap;connectable=0;overflow=hidden;fillColor=none;top=0;left=0;bottom=0;right=0;pointerEvents=1;rounded=0;sketch=1;" vertex="1" parent="lqnttasn9QhU6t0u8gb4-12">
                    <mxGeometry width="90" height="40" as="geometry">
                        <mxRectangle width="90" height="40" as="alternateBounds"/>
                    </mxGeometry>
                </mxCell>
                <mxCell id="lqnttasn9QhU6t0u8gb4-14" value="chunk level" style="text;html=1;resizable=0;autosize=1;align=center;verticalAlign=middle;points=[];fillColor=none;strokeColor=none;rounded=0;sketch=1;" vertex="1" parent="RGSGin7HSIIOFej64FQr-1">
                    <mxGeometry x="254" y="151" width="80" height="20" as="geometry"/>
                </mxCell>
                <mxCell id="lqnttasn9QhU6t0u8gb4-19" style="edgeStyle=none;html=1;entryX=0;entryY=0.5;entryDx=0;entryDy=0;rounded=0;sketch=1;exitX=1.011;exitY=0.7;exitDx=0;exitDy=0;exitPerimeter=0;" edge="1" parent="RGSGin7HSIIOFej64FQr-1">
                    <mxGeometry relative="1" as="geometry">
                        <mxPoint x="346.0100000000002" y="575.75" as="targetPoint"/>
                        <mxPoint x="259" y="551.75" as="sourcePoint"/>
                    </mxGeometry>
                </mxCell>
                <mxCell id="lqnttasn9QhU6t0u8gb4-20" style="edgeStyle=none;html=1;entryX=0;entryY=0.5;entryDx=0;entryDy=0;rounded=0;sketch=1;exitX=1;exitY=0.5;exitDx=0;exitDy=0;" edge="1" parent="RGSGin7HSIIOFej64FQr-1">
                    <mxGeometry relative="1" as="geometry">
                        <mxPoint x="347" y="524.25" as="targetPoint"/>
                        <mxPoint x="261" y="551.25" as="sourcePoint"/>
                    </mxGeometry>
                </mxCell>
                <mxCell id="lqnttasn9QhU6t0u8gb4-23" value="" style="shape=table;startSize=0;container=1;collapsible=0;childLayout=tableLayout;rounded=0;sketch=1;" vertex="1" parent="RGSGin7HSIIOFej64FQr-1">
                    <mxGeometry x="362" y="562" width="90" height="40" as="geometry"/>
                </mxCell>
                <mxCell id="lqnttasn9QhU6t0u8gb4-24" value="" style="shape=partialRectangle;collapsible=0;dropTarget=0;pointerEvents=0;fillColor=none;top=0;left=0;bottom=0;right=0;points=[[0,0.5],[1,0.5]];portConstraint=eastwest;rounded=0;sketch=1;" vertex="1" parent="lqnttasn9QhU6t0u8gb4-23">
                    <mxGeometry width="90" height="40" as="geometry"/>
                </mxCell>
                <mxCell id="lqnttasn9QhU6t0u8gb4-25" value="1000th near-probe cell" style="shape=partialRectangle;html=1;whiteSpace=wrap;connectable=0;overflow=hidden;fillColor=none;top=0;left=0;bottom=0;right=0;pointerEvents=1;rounded=0;sketch=1;" vertex="1" parent="lqnttasn9QhU6t0u8gb4-24">
                    <mxGeometry width="90" height="40" as="geometry">
                        <mxRectangle width="90" height="40" as="alternateBounds"/>
                    </mxGeometry>
                </mxCell>
                <mxCell id="lqnttasn9QhU6t0u8gb4-26" value="" style="shape=table;startSize=0;container=1;collapsible=0;childLayout=tableLayout;rounded=0;sketch=1;" vertex="1" parent="RGSGin7HSIIOFej64FQr-1">
                    <mxGeometry x="360" y="503" width="90" height="40" as="geometry"/>
                </mxCell>
                <mxCell id="lqnttasn9QhU6t0u8gb4-27" value="" style="shape=partialRectangle;collapsible=0;dropTarget=0;pointerEvents=0;fillColor=none;top=0;left=0;bottom=0;right=0;points=[[0,0.5],[1,0.5]];portConstraint=eastwest;rounded=0;sketch=1;" vertex="1" parent="lqnttasn9QhU6t0u8gb4-26">
                    <mxGeometry width="90" height="40" as="geometry"/>
                </mxCell>
                <mxCell id="lqnttasn9QhU6t0u8gb4-28" value="1" style="shape=partialRectangle;html=1;whiteSpace=wrap;connectable=0;overflow=hidden;fillColor=none;top=0;left=0;bottom=0;right=0;pointerEvents=1;rounded=0;sketch=1;" vertex="1" parent="lqnttasn9QhU6t0u8gb4-27">
                    <mxGeometry width="90" height="40" as="geometry">
                        <mxRectangle width="90" height="40" as="alternateBounds"/>
                    </mxGeometry>
                </mxCell>
                <mxCell id="lqnttasn9QhU6t0u8gb4-29" value="4 secs x 128 sites&amp;nbsp;" style="text;html=1;resizable=0;autosize=1;align=center;verticalAlign=middle;points=[];fillColor=none;strokeColor=none;rounded=0;sketch=1;" vertex="1" parent="RGSGin7HSIIOFej64FQr-1">
                    <mxGeometry x="350" y="480" width="110" height="20" as="geometry"/>
                </mxCell>
                <mxCell id="lqnttasn9QhU6t0u8gb4-30" value="..." style="text;html=1;resizable=0;autosize=1;align=center;verticalAlign=middle;points=[];fillColor=none;strokeColor=none;rounded=0;sketch=1;" vertex="1" parent="RGSGin7HSIIOFej64FQr-1">
                    <mxGeometry x="389" y="540" width="30" height="20" as="geometry"/>
                </mxCell>
                <mxCell id="lqnttasn9QhU6t0u8gb4-31" value="..." style="text;html=1;resizable=0;autosize=1;align=center;verticalAlign=middle;points=[];fillColor=none;strokeColor=none;rounded=0;sketch=1;" vertex="1" parent="RGSGin7HSIIOFej64FQr-1">
                    <mxGeometry x="199" y="339" width="30" height="20" as="geometry"/>
                </mxCell>
                <mxCell id="lqnttasn9QhU6t0u8gb4-33" value="..." style="text;html=1;resizable=0;autosize=1;align=center;verticalAlign=middle;points=[];fillColor=none;strokeColor=none;rounded=0;sketch=1;" vertex="1" parent="RGSGin7HSIIOFej64FQr-1">
                    <mxGeometry x="79" y="460" width="30" height="20" as="geometry"/>
                </mxCell>
                <mxCell id="lqnttasn9QhU6t0u8gb4-34" value="" style="shape=table;startSize=0;container=1;collapsible=0;childLayout=tableLayout;rounded=0;sketch=1;" vertex="1" parent="RGSGin7HSIIOFej64FQr-1">
                    <mxGeometry x="487.5" y="349" width="90" height="40" as="geometry"/>
                </mxCell>
                <mxCell id="lqnttasn9QhU6t0u8gb4-35" value="" style="shape=partialRectangle;collapsible=0;dropTarget=0;pointerEvents=0;fillColor=none;top=0;left=0;bottom=0;right=0;points=[[0,0.5],[1,0.5]];portConstraint=eastwest;rounded=0;sketch=1;" vertex="1" parent="lqnttasn9QhU6t0u8gb4-34">
                    <mxGeometry width="90" height="40" as="geometry"/>
                </mxCell>
                <mxCell id="lqnttasn9QhU6t0u8gb4-36" value="1000th near-probe cell" style="shape=partialRectangle;html=1;whiteSpace=wrap;connectable=0;overflow=hidden;fillColor=none;top=0;left=0;bottom=0;right=0;pointerEvents=1;rounded=0;sketch=1;" vertex="1" parent="lqnttasn9QhU6t0u8gb4-35">
                    <mxGeometry width="90" height="40" as="geometry">
                        <mxRectangle width="90" height="40" as="alternateBounds"/>
                    </mxGeometry>
                </mxCell>
                <mxCell id="lqnttasn9QhU6t0u8gb4-37" value="" style="shape=table;startSize=0;container=1;collapsible=0;childLayout=tableLayout;rounded=0;sketch=1;" vertex="1" parent="RGSGin7HSIIOFej64FQr-1">
                    <mxGeometry x="485.5" y="290" width="90" height="40" as="geometry"/>
                </mxCell>
                <mxCell id="lqnttasn9QhU6t0u8gb4-38" value="" style="shape=partialRectangle;collapsible=0;dropTarget=0;pointerEvents=0;fillColor=none;top=0;left=0;bottom=0;right=0;points=[[0,0.5],[1,0.5]];portConstraint=eastwest;rounded=0;sketch=1;" vertex="1" parent="lqnttasn9QhU6t0u8gb4-37">
                    <mxGeometry width="90" height="40" as="geometry"/>
                </mxCell>
                <mxCell id="lqnttasn9QhU6t0u8gb4-39" value="1" style="shape=partialRectangle;html=1;whiteSpace=wrap;connectable=0;overflow=hidden;fillColor=none;top=0;left=0;bottom=0;right=0;pointerEvents=1;rounded=0;sketch=1;" vertex="1" parent="lqnttasn9QhU6t0u8gb4-38">
                    <mxGeometry width="90" height="40" as="geometry">
                        <mxRectangle width="90" height="40" as="alternateBounds"/>
                    </mxGeometry>
                </mxCell>
                <mxCell id="lqnttasn9QhU6t0u8gb4-40" value="4 secs x 128 sites&amp;nbsp;" style="text;html=1;resizable=0;autosize=1;align=center;verticalAlign=middle;points=[];fillColor=none;strokeColor=none;rounded=0;sketch=1;" vertex="1" parent="RGSGin7HSIIOFej64FQr-1">
                    <mxGeometry x="475.5" y="267" width="110" height="20" as="geometry"/>
                </mxCell>
                <mxCell id="lqnttasn9QhU6t0u8gb4-41" value="..." style="text;html=1;resizable=0;autosize=1;align=center;verticalAlign=middle;points=[];fillColor=none;strokeColor=none;rounded=0;sketch=1;" vertex="1" parent="RGSGin7HSIIOFej64FQr-1">
                    <mxGeometry x="514.5" y="327" width="30" height="20" as="geometry"/>
                </mxCell>
                <mxCell id="lqnttasn9QhU6t0u8gb4-42" value="" style="shape=table;startSize=0;container=1;collapsible=0;childLayout=tableLayout;rounded=0;sketch=1;" vertex="1" parent="RGSGin7HSIIOFej64FQr-1">
                    <mxGeometry x="492.5" y="621" width="90" height="40" as="geometry"/>
                </mxCell>
                <mxCell id="lqnttasn9QhU6t0u8gb4-43" value="" style="shape=partialRectangle;collapsible=0;dropTarget=0;pointerEvents=0;fillColor=none;top=0;left=0;bottom=0;right=0;points=[[0,0.5],[1,0.5]];portConstraint=eastwest;rounded=0;sketch=1;" vertex="1" parent="lqnttasn9QhU6t0u8gb4-42">
                    <mxGeometry width="90" height="40" as="geometry"/>
                </mxCell>
                <mxCell id="lqnttasn9QhU6t0u8gb4-44" value="1000th near-probe cell" style="shape=partialRectangle;html=1;whiteSpace=wrap;connectable=0;overflow=hidden;fillColor=none;top=0;left=0;bottom=0;right=0;pointerEvents=1;rounded=0;sketch=1;" vertex="1" parent="lqnttasn9QhU6t0u8gb4-43">
                    <mxGeometry width="90" height="40" as="geometry">
                        <mxRectangle width="90" height="40" as="alternateBounds"/>
                    </mxGeometry>
                </mxCell>
                <mxCell id="lqnttasn9QhU6t0u8gb4-45" value="" style="shape=table;startSize=0;container=1;collapsible=0;childLayout=tableLayout;rounded=0;sketch=1;" vertex="1" parent="RGSGin7HSIIOFej64FQr-1">
                    <mxGeometry x="490.5" y="562" width="90" height="40" as="geometry"/>
                </mxCell>
                <mxCell id="lqnttasn9QhU6t0u8gb4-46" value="" style="shape=partialRectangle;collapsible=0;dropTarget=0;pointerEvents=0;fillColor=none;top=0;left=0;bottom=0;right=0;points=[[0,0.5],[1,0.5]];portConstraint=eastwest;rounded=0;sketch=1;" vertex="1" parent="lqnttasn9QhU6t0u8gb4-45">
                    <mxGeometry width="90" height="40" as="geometry"/>
                </mxCell>
                <mxCell id="lqnttasn9QhU6t0u8gb4-47" value="1" style="shape=partialRectangle;html=1;whiteSpace=wrap;connectable=0;overflow=hidden;fillColor=none;top=0;left=0;bottom=0;right=0;pointerEvents=1;rounded=0;sketch=1;" vertex="1" parent="lqnttasn9QhU6t0u8gb4-46">
                    <mxGeometry width="90" height="40" as="geometry">
                        <mxRectangle width="90" height="40" as="alternateBounds"/>
                    </mxGeometry>
                </mxCell>
                <mxCell id="lqnttasn9QhU6t0u8gb4-48" value="4 secs x 128 sites&amp;nbsp;" style="text;html=1;resizable=0;autosize=1;align=center;verticalAlign=middle;points=[];fillColor=none;strokeColor=none;rounded=0;sketch=1;" vertex="1" parent="RGSGin7HSIIOFej64FQr-1">
                    <mxGeometry x="480.5" y="539" width="110" height="20" as="geometry"/>
                </mxCell>
                <mxCell id="lqnttasn9QhU6t0u8gb4-49" value="..." style="text;html=1;resizable=0;autosize=1;align=center;verticalAlign=middle;points=[];fillColor=none;strokeColor=none;rounded=0;sketch=1;" vertex="1" parent="RGSGin7HSIIOFej64FQr-1">
                    <mxGeometry x="519.5" y="599" width="30" height="20" as="geometry"/>
                </mxCell>
                <mxCell id="lqnttasn9QhU6t0u8gb4-51" value="~1K files (one./ cell)" style="text;html=1;resizable=0;autosize=1;align=center;verticalAlign=middle;points=[];fillColor=none;strokeColor=none;rounded=0;sketch=1;" vertex="1" parent="RGSGin7HSIIOFej64FQr-1">
                    <mxGeometry x="648" y="710" width="120" height="20" as="geometry"/>
                </mxCell>
                <mxCell id="lqnttasn9QhU6t0u8gb4-52" value="~30K files" style="text;html=1;resizable=0;autosize=1;align=center;verticalAlign=middle;points=[];fillColor=none;strokeColor=none;rounded=0;sketch=1;" vertex="1" parent="RGSGin7HSIIOFej64FQr-1">
                    <mxGeometry x="366" y="710" width="70" height="20" as="geometry"/>
                </mxCell>
                <mxCell id="lqnttasn9QhU6t0u8gb4-53" value="300 files" style="text;html=1;resizable=0;autosize=1;align=center;verticalAlign=middle;points=[];fillColor=none;strokeColor=none;rounded=0;sketch=1;" vertex="1" parent="RGSGin7HSIIOFej64FQr-1">
                    <mxGeometry x="187" y="709" width="60" height="20" as="geometry"/>
                </mxCell>
                <mxCell id="lqnttasn9QhU6t0u8gb4-54" value="10 files" style="text;html=1;resizable=0;autosize=1;align=center;verticalAlign=middle;points=[];fillColor=none;strokeColor=none;rounded=0;sketch=1;" vertex="1" parent="RGSGin7HSIIOFej64FQr-1">
                    <mxGeometry x="74" y="709" width="50" height="20" as="geometry"/>
                </mxCell>
                <mxCell id="lqnttasn9QhU6t0u8gb4-55" value="~10K files (one./ cell)" style="text;html=1;resizable=0;autosize=1;align=center;verticalAlign=middle;points=[];fillColor=none;strokeColor=none;rounded=0;sketch=1;" vertex="1" parent="RGSGin7HSIIOFej64FQr-1">
                    <mxGeometry x="472.5" y="709" width="130" height="20" as="geometry"/>
                </mxCell>
                <mxCell id="lqnttasn9QhU6t0u8gb4-58" style="edgeStyle=none;html=1;rounded=0;sketch=1;exitX=1;exitY=0.5;exitDx=0;exitDy=0;" edge="1" parent="RGSGin7HSIIOFej64FQr-1">
                    <mxGeometry relative="1" as="geometry">
                        <mxPoint x="602.5" y="735.5" as="targetPoint"/>
                        <mxPoint x="194.5" y="735.5" as="sourcePoint"/>
                    </mxGeometry>
                </mxCell>
                <mxCell id="lqnttasn9QhU6t0u8gb4-56" value="We can discard intermediate files" style="text;html=1;resizable=0;autosize=1;align=center;verticalAlign=middle;points=[];rounded=0;sketch=1;" vertex="1" parent="RGSGin7HSIIOFej64FQr-1">
                    <mxGeometry x="290" y="737" width="190" height="20" as="geometry"/>
                </mxCell>
                <mxCell id="lqnttasn9QhU6t0u8gb4-61" value="~1K files (one./ cell)" style="text;html=1;resizable=0;autosize=1;align=center;verticalAlign=middle;points=[];fillColor=none;strokeColor=none;rounded=0;sketch=1;" vertex="1" parent="RGSGin7HSIIOFej64FQr-1">
                    <mxGeometry x="1020" y="709" width="120" height="20" as="geometry"/>
                </mxCell>
                <mxCell id="lqnttasn9QhU6t0u8gb4-64" value="" style="endArrow=none;dashed=1;html=1;sketch=1;fontSize=12;" edge="1" parent="RGSGin7HSIIOFej64FQr-1">
                    <mxGeometry width="50" height="50" relative="1" as="geometry">
                        <mxPoint x="993" y="730" as="sourcePoint"/>
                        <mxPoint x="993" y="100" as="targetPoint"/>
                    </mxGeometry>
                </mxCell>
            </root>
        </mxGraphModel>
    </diagram>
</mxfile>